<svg xmlns="http://www.w3.org/2000/svg" xmlns:xlink="http://www.w3.org/1999/xlink" viewBox="0 0 55 26"><path d="M 38.912 0.544 C 38.944 1.949 38.11 3.259 36.906 3.867 C 36.38 4.025 35.794 4.186 35.269 3.995 C 35.146 3.195 34.466 2.109 35.269 1.406 C 36.164 0.383 37.4 0.062 38.604 0 Z M 32.953 4.251 C 30.976 6.297 29.37 8.789 27.456 11.026 C 27.024 12.081 27.98 12.783 28.476 13.549 C 28.97 13.711 29.557 13.613 29.989 13.39 C 31.688 11.443 33.356 9.459 34.653 7.319 L 34.653 5.017 C 34.528 4.186 33.582 3.963 32.953 4.251 Z M 50.803 2.078 C 51.637 3.612 52.594 5.369 51.976 7.255 C 49.721 9.971 46.604 11.283 43.514 12.336 C 41.384 12.815 38.852 14.031 36.66 12.783 C 35.856 11.602 34.9 10.355 35.022 8.853 C 35.487 7.447 36.999 6.329 38.172 5.562 C 39.903 4.251 41.817 3.516 43.577 2.334 C 43.731 2.11 43.823 1.79 44.101 1.79 L 44.935 3.485 C 46.664 2.781 48.209 1.438 50.216 1.631 Z M 45.306 4.634 C 45.151 5.082 45.337 5.656 44.781 5.945 C 42.65 6.904 40.364 7.863 38.759 9.78 C 39.933 10.1 41.169 9.588 42.31 9.333 C 44.534 8.375 46.819 7.094 48.426 5.083 C 47.405 4.825 46.232 5.017 45.306 4.634 Z M 21.062 7.319 C 14.576 8.054 8.863 10.737 3.119 13.326 C 2.131 13.613 1.05 14.382 0 13.871 C 0.279 15.116 0.587 16.394 1.421 17.386 C 1.853 17.61 2.255 17.354 2.687 17.322 C 8.494 14.892 14.052 11.889 20.383 10.705 C 21.186 10.578 22.236 10.385 22.977 10.77 C 22.977 10.93 23.04 11.09 22.916 11.154 C 20.538 13.933 17.326 15.341 14.423 17.163 C 14.144 18.217 14.607 19.112 14.886 20.006 C 15.474 21.924 17.603 21.189 19.056 21.253 C 28.288 19.175 38.542 17.705 48.331 19.559 C 50.216 20.101 52.346 20.166 53.766 21.636 C 54.2 20.133 55.968 17.767 54.291 16.779 C 47.066 14.318 38.326 14.349 30.512 15.244 C 26.868 15.627 23.41 16.417 19.858 17.098 C 21.865 15.916 24.181 14.797 25.664 12.624 C 26.436 11.537 25.787 10.13 25.664 8.948 C 24.862 7.19 22.823 7.286 21.062 7.319 Z M 11.613 14.477 C 9.698 17.672 7.227 20.39 5.066 23.49 C 4.725 24.383 5.313 25.087 5.807 25.726 C 7.283 26.389 7.968 25.726 8.771 25.023 L 12.137 19.941 C 12.785 18.472 13.897 17.097 13.619 15.308 C 13.341 14.509 12.384 13.519 11.613 14.477 Z M 51.633 10.764 C 51.633 10.181 52.09 9.751 52.629 9.751 C 53.164 9.751 53.621 10.181 53.621 10.764 C 53.621 11.352 53.165 11.782 52.629 11.782 C 52.089 11.782 51.633 11.353 51.633 10.764 Z M 52.629 11.613 C 53.073 11.613 53.423 11.253 53.423 10.765 C 53.423 10.284 53.073 9.922 52.629 9.922 C 52.181 9.922 51.829 10.284 51.829 10.765 C 51.829 11.253 52.181 11.613 52.629 11.613 Z M 52.423 11.353 L 52.251 11.353 L 52.251 10.181 L 52.682 10.181 C 52.949 10.181 53.08 10.283 53.08 10.514 C 53.08 10.723 52.953 10.815 52.787 10.836 L 53.108 11.352 L 52.917 11.352 L 52.618 10.844 L 52.422 10.844 Z M 52.627 10.694 C 52.772 10.694 52.902 10.684 52.902 10.504 C 52.902 10.359 52.775 10.332 52.655 10.332 L 52.423 10.332 L 52.423 10.694 Z" fill="rgb(255, 255, 255)"></path><path d="M 31.233 22.997 C 32.074 22.997 32.298 23.567 32.302 23.915 L 31.752 23.915 C 31.737 23.788 31.69 23.487 31.19 23.487 C 30.973 23.487 30.713 23.57 30.713 23.827 C 30.713 24.048 30.888 24.096 31.003 24.124 L 31.671 24.294 C 32.045 24.389 32.389 24.546 32.389 25.057 C 32.389 25.911 31.549 25.985 31.309 25.985 C 30.308 25.985 30.135 25.389 30.135 25.037 L 30.688 25.037 C 30.692 25.195 30.768 25.495 31.268 25.495 C 31.539 25.495 31.84 25.428 31.84 25.128 C 31.84 24.907 31.634 24.848 31.344 24.776 L 31.05 24.705 L 31.049 24.704 C 30.606 24.597 30.179 24.494 30.179 23.87 C 30.179 23.554 30.343 22.997 31.233 22.997 Z" fill="rgba(255, 255, 255, 0.23)"></path><path d="M 39.902 22.996 C 40.743 22.996 41.075 23.562 41.105 23.953 L 40.533 23.953 C 40.533 23.842 40.338 23.486 39.934 23.486 C 39.525 23.486 39.147 23.779 39.147 24.507 C 39.147 25.281 39.556 25.482 39.945 25.482 C 40.072 25.482 40.492 25.43 40.609 24.857 L 39.971 24.857 L 39.971 24.381 L 41.116 24.381 L 41.116 25.91 L 40.734 25.91 L 40.677 25.555 L 40.673 25.559 C 40.528 25.732 40.318 25.985 39.822 25.985 C 39.162 25.985 38.562 25.494 38.562 24.499 C 38.562 23.723 38.978 22.992 39.902 22.996 Z" fill="rgba(255, 255, 255, 0.23)"></path><path d="M 45.371 22.997 C 46.211 22.997 46.436 23.567 46.44 23.915 L 45.89 23.915 C 45.875 23.788 45.828 23.487 45.328 23.487 C 45.11 23.487 44.851 23.57 44.851 23.827 C 44.851 24.048 45.026 24.096 45.141 24.124 L 45.809 24.294 C 46.183 24.389 46.526 24.546 46.526 25.057 C 46.526 25.911 45.687 25.985 45.446 25.985 C 44.445 25.985 44.273 25.389 44.273 25.037 L 44.824 25.037 C 44.828 25.195 44.905 25.495 45.404 25.495 C 45.675 25.495 45.977 25.428 45.977 25.128 C 45.977 24.907 45.771 24.848 45.481 24.776 L 45.188 24.705 L 45.185 24.704 C 44.744 24.598 44.316 24.494 44.316 23.87 C 44.317 23.554 44.481 22.997 45.371 22.997 Z" fill="rgba(255, 255, 255, 0.23)"></path><path d="M 29.91 25.911 L 29.287 25.911 L 29.112 25.326 L 28.101 25.326 L 27.908 25.911 L 27.305 25.911 L 28.283 23.073 L 28.943 23.073 Z M 28.604 23.714 L 28.253 24.836 L 28.951 24.836 L 28.611 23.714 Z" fill="rgba(255, 255, 255, 0.23)"></path><path d="M 34.57 25.224 L 34.578 25.224 L 35.174 23.073 L 35.77 23.073 L 34.838 25.911 L 34.291 25.911 L 33.367 23.073 L 33.982 23.073 Z" fill="rgba(255, 255, 255, 0.23)"></path><path d="M 44.049 25.911 L 43.426 25.911 L 43.25 25.326 L 42.236 25.326 L 42.046 25.911 L 41.442 25.911 L 42.421 23.073 L 43.082 23.073 Z M 42.391 24.836 L 43.089 24.836 L 42.749 23.714 L 42.742 23.714 Z" fill="rgba(255, 255, 255, 0.23)"></path><path d="M 25.756 25.396 L 27.119 25.396 L 27.119 25.91 L 25.183 25.91 L 25.183 23.072 L 25.756 23.072 Z" fill="rgba(255, 255, 255, 0.23)"></path><path d="M 38.15 23.574 L 36.695 23.574 L 36.695 24.172 L 38.032 24.172 L 38.032 24.674 L 36.695 24.674 L 36.695 25.408 L 38.216 25.408 L 38.216 25.91 L 36.134 25.91 L 36.134 23.072 L 38.15 23.072 Z" fill="rgba(255, 255, 255, 0.23)"></path></svg>