<svg xmlns="http://www.w3.org/2000/svg" viewBox="0 0 209.995 24.169" overflow="visible" fill="#ff2c01"><path d="M 60.915 6.869 L 60.915 17.517 L 63.589 17.517 C 64.967 17.497 66.279 16.924 67.225 15.928 C 68.187 14.918 68.713 13.574 68.691 12.185 C 68.733 10.79 68.212 9.437 67.246 8.425 C 66.295 7.427 64.972 6.864 63.589 6.868 L 60.916 6.868 Z M 63.589 3.531 C 68.573 3.531 72.343 7.365 72.343 12.185 C 72.343 17.004 68.573 20.86 63.589 20.86 L 57.691 20.86 C 57.577 20.859 57.469 20.813 57.39 20.732 C 57.31 20.651 57.267 20.542 57.268 20.43 L 57.268 3.979 C 57.268 3.741 57.458 3.547 57.691 3.547 Z M 85.19 17.888 C 87.454 17.895 89.498 16.513 90.369 14.386 C 91.241 12.263 90.772 9.829 89.172 8.176 C 87.597 6.547 85.172 6.05 83.076 6.928 C 80.985 7.805 79.618 9.88 79.614 12.185 C 79.614 15.326 82.107 17.874 85.191 17.888 M 85.191 3.138 C 90.437 3.138 94.448 7.243 94.448 12.185 C 94.448 17.126 90.437 21.231 85.19 21.231 C 79.944 21.231 75.968 17.147 75.968 12.185 C 75.968 7.223 79.978 3.138 85.19 3.138 M 107.191 17.888 C 110.277 17.88 112.774 15.33 112.771 12.189 C 112.767 9.045 110.265 6.5 107.18 6.499 C 104.093 6.499 101.589 9.042 101.585 12.185 C 101.585 13.698 102.175 15.15 103.227 16.219 C 104.266 17.284 105.696 17.886 107.19 17.888 M 107.19 3.138 C 112.419 3.138 116.43 7.223 116.43 12.185 C 116.43 17.147 112.403 21.231 107.19 21.231 C 101.978 21.231 97.933 17.147 97.933 12.185 C 97.933 7.223 101.944 3.138 107.19 3.138 M 128.661 6.869 L 124.891 6.869 L 124.891 11.452 L 128.661 11.452 C 129.263 11.479 129.85 11.257 130.281 10.839 C 130.718 10.419 130.966 9.837 130.971 9.225 C 130.994 8.598 130.757 7.989 130.317 7.538 C 129.884 7.095 129.283 6.853 128.661 6.874 Z M 121.243 3.979 C 121.243 3.741 121.434 3.547 121.667 3.547 L 128.766 3.547 C 132.151 3.547 134.6 6.072 134.6 9.243 C 134.626 11.387 133.446 13.357 131.563 14.317 L 134.837 20.21 C 134.93 20.348 134.936 20.526 134.854 20.671 C 134.773 20.813 134.616 20.895 134.453 20.882 L 131.58 20.882 C 131.417 20.884 131.267 20.794 131.195 20.649 L 128.04 14.817 L 124.877 14.817 L 124.877 20.416 C 124.879 20.529 124.836 20.638 124.756 20.719 C 124.677 20.8 124.568 20.847 124.455 20.848 L 121.686 20.848 C 121.573 20.847 121.464 20.8 121.385 20.719 C 121.305 20.638 121.262 20.529 121.264 20.416 L 121.245 3.98 Z M 144.107 6.951 L 144.107 17.6 L 146.78 17.6 C 148.158 17.582 149.471 17.01 150.418 16.016 C 151.38 15.007 151.907 13.665 151.887 12.275 C 151.931 10.879 151.412 9.524 150.445 8.509 C 149.493 7.51 148.167 6.946 146.781 6.952 Z M 146.78 3.608 C 151.764 3.608 155.535 7.446 155.535 12.275 C 155.535 17.105 151.764 20.943 146.78 20.943 L 140.9 20.943 C 140.786 20.941 140.678 20.895 140.598 20.814 C 140.519 20.733 140.475 20.624 140.477 20.511 L 140.477 4.062 C 140.477 3.822 140.667 3.628 140.9 3.628 L 146.781 3.608 Z M 166.656 7.843 L 164.588 13.537 L 168.721 13.537 Z M 163.374 16.755 L 162.02 20.546 C 161.964 20.73 161.79 20.852 161.597 20.844 L 158.66 20.844 C 158.508 20.858 158.36 20.788 158.274 20.662 C 158.187 20.535 158.173 20.372 158.237 20.232 L 164.584 3.798 C 164.644 3.62 164.817 3.503 165.006 3.513 L 168.293 3.513 C 168.482 3.503 168.656 3.619 168.717 3.798 L 175.063 20.232 C 175.127 20.372 175.113 20.535 175.025 20.662 C 174.939 20.788 174.791 20.857 174.639 20.843 L 171.703 20.843 C 171.51 20.851 171.336 20.728 171.28 20.545 L 169.926 16.754 L 163.374 16.754 Z M 178.468 8.212 C 178.468 5.491 180.778 3.138 184.426 3.138 C 186.39 3.095 188.292 3.824 189.717 5.168 C 189.805 5.25 189.854 5.365 189.854 5.484 C 189.854 5.604 189.805 5.719 189.717 5.801 L 188.09 7.446 C 188.011 7.527 187.903 7.573 187.79 7.573 C 187.677 7.573 187.569 7.527 187.49 7.446 C 186.724 6.733 185.717 6.329 184.667 6.313 C 183.208 6.313 182.13 7.175 182.13 8.171 C 182.13 11.387 190.752 9.531 190.752 15.721 C 190.748 18.858 188.42 21.231 184.305 21.231 C 181.996 21.255 179.776 20.347 178.153 18.716 C 178.065 18.633 178.016 18.519 178.016 18.399 C 178.016 18.279 178.065 18.164 178.153 18.082 L 179.727 16.479 C 179.806 16.394 179.917 16.346 180.034 16.346 C 180.15 16.346 180.261 16.394 180.34 16.479 C 181.331 17.454 182.665 18.007 184.059 18.022 C 185.882 18.022 187.084 17.031 187.084 15.79 C 187.084 12.572 178.465 14.429 178.465 8.238 M 206.387 3.957 L 206.387 10.461 L 199.089 10.461 L 199.089 3.957 C 199.091 3.845 199.047 3.736 198.968 3.655 C 198.888 3.574 198.78 3.528 198.666 3.527 L 195.898 3.527 C 195.785 3.528 195.676 3.574 195.597 3.655 C 195.518 3.736 195.474 3.845 195.475 3.957 L 195.475 20.389 C 195.475 20.627 195.666 20.821 195.898 20.821 L 198.666 20.821 C 198.898 20.821 199.089 20.627 199.089 20.389 L 199.089 13.782 L 206.382 13.782 L 206.382 20.389 C 206.382 20.627 206.573 20.821 206.805 20.821 L 209.573 20.821 C 209.806 20.821 209.995 20.627 209.995 20.389 L 209.995 3.957 C 209.997 3.845 209.953 3.736 209.874 3.655 C 209.795 3.574 209.686 3.528 209.573 3.527 L 206.805 3.527 C 206.57 3.533 206.384 3.725 206.387 3.957 Z M 41.73 5.72 C 39.81 2.187 36.053 -0.013 31.967 0 L 1.056 0 C 0.63 0.002 0.245 0.257 0.08 0.647 C -0.083 1.036 0.008 1.483 0.309 1.779 L 7.043 8.413 C 7.637 9 8.447 9.329 9.29 9.329 L 31.081 9.329 C 32.634 9.313 33.904 10.534 33.92 12.055 C 33.936 13.575 32.691 14.821 31.138 14.836 L 16.115 14.836 C 15.688 14.836 15.302 15.089 15.136 15.48 C 14.971 15.869 15.062 16.318 15.364 16.614 L 22.101 23.254 C 22.7 23.841 23.507 24.17 24.349 24.169 L 31.144 24.169 C 39.984 24.169 46.669 14.909 41.73 5.716"/></svg>
