<svg xmlns="http://www.w3.org/2000/svg" xmlns:xlink="http://www.w3.org/1999/xlink" viewBox="0 0 107 32"><path d="M 61.593 11 C 62.159 11 62.709 11.078 63.242 11.234 C 63.76 11.406 64.035 11.625 64.035 11.89 C 64.035 12.031 63.986 12.171 63.889 12.296 C 63.824 12.421 63.679 12.515 63.533 12.515 C 63.323 12.452 63.113 12.374 62.903 12.28 C 62.498 12.109 62.062 12.015 61.609 12.031 C 61.14 12.015 60.655 12.124 60.251 12.359 C 59.895 12.593 59.701 12.999 59.733 13.421 C 59.717 13.811 59.879 14.186 60.186 14.436 C 60.526 14.701 60.914 14.92 61.334 15.045 C 61.787 15.201 62.24 15.373 62.692 15.576 C 63.145 15.794 63.533 16.122 63.824 16.528 C 64.148 17.028 64.31 17.606 64.293 18.199 C 64.293 19.12 64.019 19.823 63.453 20.292 C 62.838 20.791 62.046 21.041 61.237 20.994 C 60.509 21.01 59.782 20.838 59.151 20.495 C 58.569 20.12 58.278 19.792 58.278 19.464 C 58.278 19.308 58.343 19.167 58.44 19.042 C 58.52 18.933 58.634 18.855 58.779 18.84 C 58.909 18.855 59.022 18.917 59.103 19.011 C 59.232 19.12 59.361 19.245 59.507 19.386 C 59.701 19.558 59.927 19.683 60.17 19.761 C 60.493 19.886 60.849 19.933 61.189 19.933 C 61.706 19.964 62.207 19.808 62.612 19.511 C 62.967 19.199 63.162 18.73 63.129 18.262 C 63.145 17.809 62.984 17.387 62.66 17.059 C 62.337 16.747 61.949 16.512 61.512 16.356 C 61.059 16.2 60.623 16.029 60.154 15.841 C 59.701 15.654 59.313 15.373 59.006 14.998 C 58.682 14.576 58.504 14.061 58.537 13.53 C 58.52 13.108 58.618 12.687 58.812 12.296 C 58.973 11.968 59.232 11.703 59.555 11.515 C 59.863 11.344 60.186 11.219 60.526 11.125 C 60.881 11.047 61.237 11 61.593 11 Z M 53.313 11.734 C 53.863 12.202 54.138 12.952 54.138 13.951 L 54.138 17.996 C 54.138 19.011 53.863 19.745 53.313 20.214 C 52.02 21.166 50.241 21.166 48.947 20.214 C 48.414 19.745 48.139 19.011 48.139 17.996 L 48.139 13.951 C 48.139 12.936 48.414 12.202 48.947 11.734 C 50.241 10.797 52.02 10.797 53.313 11.734 Z M 93.271 11.031 C 93.659 11.031 93.902 11.156 93.983 11.422 L 96.845 20.323 L 96.845 20.401 C 96.845 20.542 96.748 20.666 96.618 20.729 C 96.473 20.823 96.295 20.87 96.101 20.854 C 95.923 20.87 95.745 20.776 95.681 20.604 L 95.066 18.636 L 91.411 18.636 L 90.797 20.604 C 90.749 20.776 90.554 20.885 90.377 20.87 C 90.215 20.87 90.053 20.823 89.908 20.729 C 89.762 20.666 89.681 20.542 89.681 20.385 C 89.681 20.354 89.697 20.307 89.714 20.276 L 92.56 11.422 C 92.64 11.156 92.883 11.031 93.271 11.031 Z M 78.847 11.031 C 79.219 11.031 79.526 11.266 79.785 11.75 L 81.968 15.794 L 84.167 11.75 C 84.442 11.281 84.749 11.031 85.105 11.031 C 85.38 10.984 85.639 11.172 85.687 11.437 C 85.703 11.484 85.703 11.531 85.687 11.578 L 85.687 20.432 C 85.687 20.557 85.622 20.667 85.509 20.729 C 85.25 20.87 84.943 20.87 84.684 20.729 C 84.571 20.667 84.507 20.557 84.507 20.432 L 84.507 13.389 L 82.404 17.2 C 82.34 17.387 82.162 17.528 81.952 17.528 C 81.758 17.512 81.58 17.387 81.515 17.2 L 79.413 13.311 L 79.413 20.432 C 79.413 20.557 79.348 20.667 79.235 20.729 C 79.122 20.807 78.976 20.854 78.847 20.854 C 78.701 20.854 78.556 20.823 78.443 20.745 C 78.313 20.698 78.232 20.573 78.249 20.448 L 78.249 11.593 C 78.2 11.328 78.394 11.078 78.669 11.031 C 78.734 11.016 78.798 11.016 78.847 11.031 Z M 101.453 11.016 C 101.631 11.016 101.809 11.078 101.955 11.187 C 102.116 11.344 102.262 11.531 102.343 11.734 L 105.819 18.293 L 105.819 11.406 C 105.819 11.281 105.884 11.172 105.997 11.125 C 106.256 10.984 106.563 10.984 106.822 11.125 C 106.935 11.187 107 11.297 107 11.406 L 107 20.448 C 107 20.573 106.935 20.682 106.822 20.745 C 106.693 20.823 106.563 20.854 106.418 20.854 C 106.094 20.838 105.803 20.635 105.69 20.338 L 102.036 13.577 L 102.036 20.448 C 102.036 20.573 101.971 20.682 101.874 20.745 C 101.615 20.885 101.308 20.885 101.049 20.745 C 100.936 20.682 100.871 20.573 100.871 20.448 L 100.871 11.406 C 100.871 11.14 101.065 11.016 101.453 11.016 Z M 38.469 11.016 L 41.105 11.016 C 41.881 10.984 42.657 11.234 43.255 11.718 C 43.789 12.187 44.064 12.921 44.064 13.92 L 44.064 14.045 C 44.064 15.045 43.789 15.794 43.239 16.263 C 42.625 16.747 41.849 17.012 41.056 16.965 L 39.18 16.965 L 39.18 20.448 C 39.18 20.573 39.116 20.682 39.002 20.745 C 38.744 20.885 38.437 20.885 38.178 20.745 C 38.065 20.682 38 20.573 38 20.448 L 38 11.406 C 38 11.297 38.048 11.203 38.129 11.125 C 38.226 11.047 38.34 11 38.469 11.016 Z M 73.85 11.016 C 73.979 11.016 74.093 11.062 74.157 11.172 C 74.238 11.265 74.271 11.39 74.271 11.515 C 74.271 11.64 74.238 11.781 74.157 11.89 C 74.093 11.999 73.979 12.046 73.85 12.046 L 71.635 12.046 L 71.635 20.448 C 71.635 20.573 71.57 20.682 71.457 20.745 C 71.198 20.885 70.891 20.885 70.632 20.745 C 70.519 20.682 70.454 20.573 70.454 20.448 L 70.454 12.046 L 68.207 12.046 C 68.077 12.046 67.964 11.999 67.899 11.89 C 67.818 11.781 67.77 11.656 67.77 11.515 C 67.77 11.39 67.802 11.265 67.883 11.172 C 67.948 11.062 68.061 11.016 68.19 11.016 Z M 51.147 12.031 C 49.934 12.031 49.335 12.655 49.335 13.936 L 49.319 17.996 C 49.319 19.261 49.918 19.901 51.147 19.901 C 51.648 19.932 52.133 19.761 52.505 19.433 C 52.861 19.042 53.022 18.527 52.99 17.996 L 52.99 13.936 C 53.039 13.42 52.861 12.905 52.505 12.499 C 52.133 12.171 51.648 11.999 51.147 12.031 Z M 93.271 12.671 L 91.703 17.699 L 94.823 17.699 Z M 41.056 12.046 L 39.18 12.046 L 39.164 16.028 L 41.056 16.028 C 41.557 16.06 42.059 15.888 42.415 15.544 C 42.77 15.154 42.948 14.639 42.9 14.108 L 42.9 13.951 C 42.948 13.436 42.77 12.921 42.415 12.515 C 42.043 12.187 41.557 12.015 41.056 12.046 Z" fill="rgb(255, 255, 255)"></path><path d="M 14.902 0.038 C 18.058 -0.179 21.209 0.544 23.954 2.118 C 26.7 3.691 28.918 6.044 30.326 8.878 C 31.735 11.711 32.271 14.899 31.868 18.038 C 31.328 22.246 29.138 26.068 25.78 28.662 C 22.423 31.256 18.172 32.41 13.964 31.87 C 10.825 31.467 7.876 30.142 5.49 28.063 C 3.105 25.985 1.389 23.245 0.56 20.191 C -0.269 17.137 -0.174 13.906 0.833 10.906 C 1.841 7.906 3.715 5.272 6.219 3.338 C 8.723 1.403 11.745 0.255 14.902 0.038 Z M 6.292 25.091 C 6.278 25.104 6.269 25.121 6.264 25.139 C 6.259 25.158 6.26 25.178 6.266 25.196 C 6.272 25.214 6.283 25.231 6.298 25.243 C 6.313 25.255 6.333 25.263 6.352 25.265 L 9.182 25.459 L 7.553 23.83 Z M 13.544 18.428 C 13.518 18.433 13.491 18.435 13.464 18.434 C 13.385 18.434 13.307 18.411 13.241 18.367 C 13.194 18.336 13.156 18.295 13.126 18.249 L 7.778 23.602 L 8.745 24.57 L 9.415 25.238 C 9.417 25.24 9.419 25.242 9.42 25.245 L 9.468 25.293 C 9.482 25.302 9.497 25.31 9.513 25.314 C 9.554 25.325 9.599 25.32 9.636 25.299 C 9.673 25.278 9.701 25.242 9.712 25.201 C 9.723 25.159 9.718 25.115 9.697 25.078 L 9.427 23.922 C 9.412 23.856 9.419 23.787 9.448 23.725 C 9.477 23.663 9.525 23.612 9.586 23.582 C 12.422 22.159 14.703 20.694 16.382 19.228 L 15.219 18.067 Z M 21.926 12.224 C 21.879 12.286 21.827 12.343 21.769 12.394 L 15.502 17.896 C 16.178 18.572 16.484 18.878 16.623 19.017 C 19.221 16.549 21.728 14.021 21.926 12.224 Z M 13.404 17.974 C 13.391 17.986 13.383 18.003 13.38 18.02 C 13.378 18.038 13.382 18.057 13.391 18.072 C 13.398 18.088 13.412 18.101 13.428 18.109 C 13.445 18.117 13.463 18.118 13.481 18.113 L 14.946 17.794 L 14.265 17.115 Z M 21.038 10.702 C 20.927 10.701 20.815 10.723 20.712 10.766 C 20.609 10.809 20.516 10.873 20.439 10.953 L 14.517 16.875 L 15.301 17.659 L 21.566 12.156 C 21.651 12.084 21.721 11.995 21.771 11.895 C 21.821 11.795 21.849 11.685 21.856 11.574 C 21.862 11.462 21.845 11.351 21.807 11.246 C 21.769 11.141 21.71 11.044 21.634 10.963 C 21.558 10.881 21.465 10.816 21.363 10.771 C 21.26 10.726 21.15 10.703 21.038 10.702 Z M 11.211 17.185 C 11.195 17.201 11.184 17.221 11.181 17.244 C 11.178 17.266 11.183 17.29 11.195 17.31 C 11.205 17.33 11.221 17.347 11.241 17.356 C 11.262 17.365 11.286 17.367 11.308 17.361 L 13.946 16.793 L 12.775 15.622 Z M 20.992 10.392 C 19.903 9.507 18.851 9.558 13.006 15.392 L 14.271 16.661 L 20.203 10.726 C 20.414 10.517 20.696 10.398 20.992 10.392 Z M 23.214 6.259 C 22.849 6.26 22.488 6.342 22.159 6.501 C 21.831 6.66 21.543 6.891 21.316 7.177 C 21.089 7.463 20.929 7.798 20.849 8.154 C 20.769 8.51 20.771 8.88 20.854 9.235 C 20.937 9.591 21.099 9.923 21.328 10.208 C 21.558 10.492 21.848 10.72 22.178 10.877 C 22.508 11.033 22.87 11.113 23.235 11.11 C 23.6 11.107 23.96 11.021 24.287 10.86 L 22.626 9.198 C 22.596 9.168 22.58 9.128 22.579 9.086 C 22.58 9.065 22.584 9.043 22.592 9.024 C 22.6 9.005 22.611 8.987 22.626 8.972 L 24.775 6.82 C 24.337 6.456 23.785 6.258 23.216 6.259 Z M 22.974 9.086 L 24.58 10.691 C 24.707 10.605 24.825 10.508 24.934 10.401 C 25.376 9.958 25.631 9.362 25.645 8.736 C 25.658 8.111 25.431 7.505 25.009 7.044 Z M 24.884 8.26 C 24.91 8.26 24.938 8.265 24.962 8.275 C 24.986 8.285 25.008 8.302 25.026 8.321 C 25.043 8.34 25.056 8.363 25.065 8.388 C 25.143 8.548 25.174 8.727 25.154 8.904 C 25.133 9.08 25.063 9.248 24.95 9.385 C 24.919 9.423 24.874 9.446 24.825 9.451 C 24.777 9.456 24.728 9.441 24.69 9.411 C 24.652 9.379 24.628 9.334 24.623 9.286 C 24.619 9.237 24.634 9.188 24.665 9.15 C 24.733 9.067 24.776 8.966 24.788 8.859 C 24.8 8.752 24.781 8.645 24.734 8.548 C 24.719 8.526 24.709 8.501 24.705 8.475 C 24.701 8.449 24.703 8.423 24.71 8.397 C 24.717 8.372 24.729 8.348 24.746 8.328 C 24.763 8.307 24.784 8.29 24.808 8.279 C 24.831 8.268 24.858 8.261 24.884 8.26 Z" fill="rgba(255, 255, 255, 0.23)"></path></svg>