<svg xmlns="http://www.w3.org/2000/svg" xmlns:xlink="http://www.w3.org/1999/xlink" viewBox="0 0 154 18"><path d="M 30.62 4.263 C 29.932 2.971 28.905 1.891 27.649 1.14 C 26.393 0.389 24.956 -0.005 23.493 0 L 0.925 0 C 0.772 0.001 0.622 0.048 0.496 0.133 C 0.369 0.219 0.27 0.34 0.212 0.482 C 0.154 0.623 0.139 0.779 0.169 0.929 C 0.199 1.079 0.272 1.217 0.38 1.325 L 5.296 6.27 C 5.511 6.486 5.766 6.657 6.048 6.774 C 6.329 6.891 6.631 6.952 6.936 6.952 L 22.846 6.952 C 23.116 6.949 23.383 6.999 23.633 7.1 C 23.883 7.2 24.111 7.349 24.303 7.538 C 24.496 7.726 24.649 7.951 24.755 8.199 C 24.86 8.447 24.916 8.713 24.919 8.983 C 24.922 9.252 24.871 9.519 24.77 9.769 C 24.67 10.019 24.521 10.247 24.332 10.439 C 24.144 10.632 23.919 10.785 23.671 10.891 C 23.424 10.996 23.157 11.052 22.888 11.055 L 11.919 11.055 C 11.766 11.056 11.616 11.101 11.489 11.187 C 11.362 11.273 11.262 11.394 11.204 11.535 C 11.145 11.677 11.13 11.833 11.16 11.983 C 11.189 12.133 11.263 12.271 11.371 12.38 L 16.29 17.328 C 16.505 17.544 16.761 17.716 17.042 17.833 C 17.324 17.95 17.626 18.01 17.931 18.01 L 22.891 18.01 C 29.346 18.01 34.226 11.109 30.62 4.26" fill="rgba(255, 255, 255, 0.23)"></path><path d="M 44.784 5.18 L 44.784 12.832 L 46.74 12.832 C 47.237 12.826 47.727 12.722 48.184 12.526 C 48.641 12.33 49.054 12.046 49.401 11.69 C 49.748 11.334 50.021 10.913 50.205 10.452 C 50.389 9.99 50.48 9.497 50.473 9 C 50.487 8.502 50.401 8.006 50.219 7.542 C 50.038 7.078 49.765 6.655 49.416 6.299 C 49.068 5.942 48.651 5.66 48.192 5.467 C 47.732 5.275 47.238 5.178 46.74 5.18 Z M 46.74 2.782 C 50.386 2.782 53.144 5.536 53.144 9 C 53.144 12.464 50.386 15.234 46.74 15.234 L 42.425 15.234 C 42.343 15.234 42.264 15.201 42.206 15.143 C 42.148 15.085 42.115 15.006 42.115 14.924 L 42.115 3.104 C 42.115 3.021 42.148 2.943 42.206 2.885 C 42.264 2.827 42.343 2.794 42.425 2.794 Z" fill="rgba(255, 255, 255, 0.93)"></path><path d="M 62.544 13.098 C 63.354 13.101 64.146 12.863 64.82 12.415 C 65.495 11.967 66.021 11.329 66.333 10.582 C 66.645 9.835 66.728 9.012 66.572 8.218 C 66.416 7.423 66.028 6.693 65.456 6.119 C 64.885 5.546 64.157 5.154 63.363 4.995 C 62.569 4.835 61.746 4.914 60.998 5.223 C 60.249 5.531 59.609 6.055 59.158 6.727 C 58.707 7.399 58.466 8.19 58.465 9 C 58.465 10.084 58.894 11.123 59.658 11.891 C 60.423 12.659 61.46 13.093 62.544 13.098 Z M 62.544 2.5 C 66.382 2.5 69.316 5.45 69.316 9 C 69.316 12.55 66.382 15.5 62.544 15.5 C 58.706 15.5 55.796 12.566 55.796 9 C 55.796 5.434 58.731 2.5 62.544 2.5 Z" fill="rgba(255, 255, 255, 0.93)"></path><path d="M 78.639 13.098 C 79.448 13.096 80.238 12.855 80.91 12.404 C 81.581 11.954 82.104 11.315 82.413 10.567 C 82.721 9.82 82.801 8.997 82.643 8.204 C 82.484 7.412 82.094 6.683 81.522 6.112 C 80.95 5.54 80.222 5.151 79.429 4.993 C 78.636 4.835 77.814 4.916 77.066 5.225 C 76.319 5.534 75.68 6.057 75.23 6.729 C 74.78 7.401 74.539 8.191 74.538 9 C 74.538 9.538 74.644 10.072 74.85 10.569 C 75.057 11.066 75.359 11.518 75.74 11.899 C 76.12 12.28 76.573 12.581 77.07 12.787 C 77.568 12.993 78.101 13.099 78.639 13.098 Z M 78.639 2.5 C 82.465 2.5 85.399 5.434 85.399 9 C 85.399 12.566 82.453 15.5 78.639 15.5 C 74.826 15.5 71.867 12.566 71.867 9 C 71.867 5.434 74.801 2.5 78.639 2.5 Z" fill="rgba(255, 255, 255, 0.93)"></path><path d="M 94.348 5.18 L 91.59 5.18 L 91.59 8.474 L 94.348 8.474 C 94.565 8.484 94.782 8.45 94.985 8.374 C 95.189 8.298 95.375 8.182 95.533 8.033 C 95.691 7.884 95.817 7.704 95.903 7.505 C 95.99 7.306 96.036 7.091 96.038 6.874 C 96.045 6.65 96.007 6.426 95.925 6.218 C 95.843 6.009 95.718 5.82 95.56 5.661 C 95.401 5.503 95.212 5.379 95.003 5.296 C 94.795 5.214 94.572 5.176 94.348 5.184 M 88.922 3.104 C 88.922 3.021 88.954 2.943 89.012 2.885 C 89.07 2.827 89.149 2.794 89.231 2.794 L 94.425 2.794 C 96.901 2.794 98.693 4.608 98.693 6.886 C 98.702 7.641 98.499 8.383 98.106 9.028 C 97.713 9.673 97.146 10.194 96.471 10.532 L 98.867 14.766 C 98.9 14.815 98.918 14.872 98.92 14.93 C 98.922 14.988 98.908 15.046 98.878 15.097 C 98.849 15.147 98.806 15.188 98.754 15.215 C 98.702 15.242 98.643 15.254 98.585 15.249 L 96.483 15.249 C 96.425 15.251 96.368 15.236 96.319 15.206 C 96.269 15.177 96.228 15.134 96.202 15.082 L 93.893 10.891 L 91.581 10.891 L 91.581 14.915 C 91.581 14.997 91.548 15.076 91.49 15.134 C 91.432 15.192 91.353 15.224 91.271 15.224 L 89.247 15.224 C 89.165 15.224 89.086 15.192 89.028 15.134 C 88.97 15.076 88.937 14.997 88.937 14.915 Z" fill="rgba(255, 255, 255, 0.93)"></path><path d="M 105.648 5.239 L 105.648 12.891 L 107.605 12.891 C 108.101 12.885 108.592 12.782 109.048 12.586 C 109.505 12.391 109.918 12.107 110.265 11.752 C 110.612 11.397 110.886 10.977 111.07 10.516 C 111.255 10.054 111.347 9.562 111.34 9.065 C 111.355 8.566 111.27 8.069 111.088 7.604 C 110.907 7.139 110.634 6.716 110.285 6.358 C 109.937 6.001 109.519 5.718 109.059 5.526 C 108.598 5.334 108.104 5.236 107.605 5.239 Z M 107.605 2.837 C 111.251 2.837 114.009 5.595 114.009 9.065 C 114.009 12.535 111.251 15.293 107.605 15.293 L 103.302 15.293 C 103.22 15.293 103.141 15.26 103.083 15.202 C 103.025 15.144 102.993 15.065 102.993 14.983 L 102.993 3.162 C 102.993 3.08 103.025 3.002 103.083 2.944 C 103.141 2.885 103.22 2.853 103.302 2.853 Z" fill="rgba(255, 255, 255, 0.93)"></path><path d="M 122.146 5.88 L 120.632 9.972 L 123.656 9.972 Z M 119.744 12.284 L 118.754 15.008 C 118.733 15.072 118.691 15.128 118.635 15.167 C 118.579 15.206 118.512 15.225 118.444 15.221 L 116.296 15.221 C 116.242 15.227 116.187 15.217 116.137 15.194 C 116.088 15.172 116.045 15.136 116.014 15.091 C 115.982 15.047 115.963 14.995 115.958 14.94 C 115.954 14.886 115.963 14.831 115.986 14.782 L 120.629 2.974 C 120.652 2.911 120.694 2.857 120.75 2.82 C 120.806 2.783 120.872 2.765 120.939 2.769 L 123.344 2.769 C 123.411 2.765 123.477 2.783 123.533 2.82 C 123.588 2.857 123.631 2.911 123.653 2.974 L 128.296 14.782 C 128.319 14.831 128.329 14.886 128.324 14.94 C 128.319 14.995 128.3 15.047 128.269 15.091 C 128.238 15.136 128.195 15.172 128.145 15.194 C 128.096 15.217 128.041 15.227 127.987 15.221 L 125.839 15.221 C 125.771 15.225 125.704 15.206 125.648 15.167 C 125.592 15.128 125.55 15.072 125.529 15.008 L 124.539 12.284 Z" fill="rgba(255, 255, 255, 0.93)"></path><path d="M 130.788 6.146 C 130.788 4.19 132.478 2.5 135.146 2.5 C 136.577 2.466 137.965 2.988 139.018 3.958 C 139.05 3.987 139.075 4.022 139.092 4.061 C 139.109 4.1 139.118 4.143 139.118 4.185 C 139.118 4.228 139.109 4.27 139.092 4.31 C 139.075 4.349 139.05 4.384 139.018 4.413 L 137.826 5.595 C 137.798 5.624 137.763 5.647 137.726 5.663 C 137.688 5.679 137.648 5.687 137.607 5.687 C 137.566 5.687 137.525 5.679 137.488 5.663 C 137.45 5.647 137.416 5.624 137.387 5.595 C 136.821 5.081 136.087 4.792 135.322 4.781 C 134.255 4.781 133.465 5.4 133.465 6.115 C 133.465 8.427 139.773 7.093 139.773 11.541 C 139.77 13.794 138.068 15.5 135.056 15.5 C 134.224 15.51 133.398 15.355 132.626 15.045 C 131.853 14.735 131.15 14.275 130.556 13.692 C 130.524 13.663 130.499 13.628 130.482 13.589 C 130.465 13.55 130.456 13.508 130.456 13.465 C 130.456 13.422 130.465 13.38 130.482 13.341 C 130.499 13.302 130.524 13.266 130.556 13.237 L 131.707 12.086 C 131.736 12.056 131.771 12.031 131.809 12.015 C 131.848 11.998 131.89 11.99 131.932 11.99 C 131.974 11.99 132.015 11.998 132.054 12.015 C 132.092 12.031 132.127 12.056 132.156 12.086 C 132.888 12.789 133.862 13.185 134.877 13.194 C 136.211 13.194 137.09 12.482 137.09 11.591 C 137.09 9.279 130.785 10.613 130.785 6.165" fill="rgba(255, 255, 255, 0.93)"></path><path d="M 151.213 3.088 L 151.213 7.762 L 145.874 7.762 L 145.874 3.088 C 145.874 3.006 145.841 2.927 145.783 2.869 C 145.725 2.811 145.647 2.779 145.565 2.779 L 143.54 2.779 C 143.458 2.779 143.379 2.811 143.321 2.869 C 143.263 2.927 143.231 3.006 143.231 3.088 L 143.231 14.896 C 143.231 14.979 143.263 15.057 143.321 15.115 C 143.379 15.173 143.458 15.206 143.54 15.206 L 145.565 15.206 C 145.647 15.206 145.725 15.173 145.783 15.115 C 145.841 15.057 145.874 14.979 145.874 14.896 L 145.874 10.148 L 151.21 10.148 L 151.21 14.896 C 151.21 14.979 151.243 15.057 151.301 15.115 C 151.359 15.173 151.438 15.206 151.52 15.206 L 153.544 15.206 C 153.626 15.206 153.705 15.173 153.763 15.115 C 153.821 15.057 153.854 14.979 153.854 14.896 L 153.854 3.088 C 153.854 3.006 153.821 2.927 153.763 2.869 C 153.705 2.811 153.626 2.779 153.544 2.779 L 151.52 2.779 C 151.438 2.779 151.36 2.812 151.303 2.87 C 151.246 2.928 151.213 3.007 151.213 3.088 Z" fill="rgba(255, 255, 255, 0.93)"></path></svg>