<svg xmlns="http://www.w3.org/2000/svg" xmlns:xlink="http://www.w3.org/1999/xlink" viewBox="0 0 82 24"><path d="M 27.539 13.07 C 29.622 12.958 31.465 13.159 31.441 12.062 C 31.419 11.253 31.109 10.363 29.091 10.363 C 27.095 10.363 26.586 11.192 26.43 12.154 L 23.637 12.154 C 24.037 9.177 26.563 8.035 29.18 8.035 C 31.863 8.035 34.279 8.931 34.279 13.498 L 34.279 20.035 L 31.441 20.035 L 31.441 19.202 C 31.438 18.748 31.553 18.302 31.774 17.907 C 31.863 17.706 31.951 17.482 31.751 17.392 C 31.53 17.302 31.441 17.526 31.396 17.635 C 30.731 19.269 29.446 20.209 27.361 20.209 C 25.166 20.209 23.282 18.776 23.282 16.784 C 23.282 14.167 25.189 13.204 27.539 13.07 Z M 28.027 14.973 C 26.807 15.107 26.12 15.577 26.12 16.629 C 26.12 17.614 27.051 18.241 28.359 18.063 C 29.867 17.86 31.419 16.876 31.441 13.943 C 30.776 14.681 29.712 14.794 28.027 14.973 Z" fill="rgb(255, 255, 255)"></path><path d="M 40.135 7.809 L 40.135 8.213 L 43.329 8.213 L 43.329 10.721 L 40.135 10.721 L 40.135 20.032 L 37.295 20.032 L 37.295 10.719 L 35.521 10.719 L 35.521 8.212 L 37.295 8.212 L 37.295 7.54 C 37.295 4.697 38.403 3.913 40.753 3.913 L 43.325 3.913 L 43.325 6.421 L 41.352 6.421 C 40.155 6.421 40.135 6.511 40.135 7.809 Z" fill="rgb(255, 255, 255)"></path><path d="M 47.982 10.518 C 48.691 8.883 49.334 8.033 52.194 8.033 L 52.194 10.945 C 48.89 10.722 47.937 11.908 47.937 14.909 L 47.937 20.035 L 45.102 20.035 L 45.102 8.212 L 47.94 8.212 L 47.94 8.859 C 47.938 9.334 47.824 9.802 47.608 10.225 C 47.519 10.426 47.452 10.695 47.719 10.739 C 47.849 10.764 47.959 10.585 47.982 10.518 Z" fill="rgb(255, 255, 255)"></path><path d="M 53.79 3.913 L 56.629 3.913 L 56.629 6.779 L 53.79 6.779 Z M 53.79 8.212 L 56.629 8.212 L 56.629 20.033 L 53.79 20.033 Z" fill="rgb(255, 255, 255)"></path><path d="M 69.333 14.838 L 60.819 14.838 C 61.019 16.629 62.171 17.704 63.943 17.704 C 65.296 17.704 65.983 16.965 66.315 15.913 L 69.2 15.913 C 68.69 18.353 67.049 20.211 63.924 20.211 C 60.132 20.211 58.047 17.637 58.047 14.121 C 58.047 10.428 60.309 8.033 63.879 8.033 C 66.584 8.033 69.399 9.667 69.399 13.965 C 69.398 14.258 69.376 14.549 69.333 14.838 Z M 66.561 12.868 C 66.451 11.435 65.608 10.361 63.967 10.361 C 62.038 10.361 61.218 11.458 60.93 12.868 Z" fill="rgb(255, 255, 255)"></path><path d="M 73.391 13.853 L 69.578 8.212 L 72.862 8.212 L 75.434 12.822 L 78.005 8.212 L 81.29 8.212 L 77.467 13.853 L 81.633 20.032 L 78.348 20.032 L 75.421 14.861 L 72.495 20.032 L 69.211 20.032 Z" fill="rgb(255, 255, 255)"></path><path d="M 9.365 5.233 L 6.249 10.223 L 3.708 8.923 C 3.512 8.824 3.295 8.777 3.077 8.786 C 2.858 8.795 2.646 8.86 2.459 8.976 C 2.273 9.091 2.119 9.253 2.012 9.446 C 1.905 9.638 1.849 9.855 1.848 10.076 C 1.849 10.287 1.9 10.494 1.998 10.68 C 2.095 10.866 2.237 11.025 2.409 11.143 L 4.686 12.716 L 1.848 17.26 L 0 20.211 L 4.494 20.211 L 7.828 14.883 L 14.87 19.741 C 15.315 20.047 15.84 20.211 16.379 20.211 C 16.806 20.211 17.226 20.105 17.603 19.901 C 17.98 19.698 18.301 19.404 18.538 19.046 C 18.776 18.688 18.922 18.276 18.965 17.846 C 19.007 17.417 18.945 16.984 18.782 16.585 L 14.329 5.665 C 13.463 3.541 10.581 3.289 9.365 5.233 Z M 9.65 11.967 L 11.55 8.928 L 13.619 14.002 Z" fill="rgba(255, 255, 255, 0.23)"></path></svg>